<svg xmlns="http://www.w3.org/2000/svg">
    <!--Logo-->
    <symbol width="29" height="25" viewBox="0 0 29 25" fill="none"  id="Logo">
        <rect y="4.89111" width="9.78261" height="9.78261" transform="rotate(-30 0 4.89111)" fill="#FFB82B"/>
        <rect x="4.13086" y="15" width="10" height="10" fill="#FFB82B"/>
        <rect x="18.1309" y="2" width="10" height="10" fill="#FFB82B"/>
        <rect x="18.1309" y="15" width="10" height="10" fill="#FFB82B"/>
    </symbol>

    <!--Social-->
    <symbol width="20" height="20" viewBox="0 0 20 20" fill="none" xmlns="http://www.w3.org/2000/svg" id="Instagram">
        <path d="M14.0759 2.03236C15.173 2.03551 16.2242 2.45628 17 3.20276C17.7757 3.94925 18.213 4.9608 18.2162 6.01648V13.9839C18.213 15.0396 17.7757 16.0511 17 16.7976C16.2242 17.5441 15.173 17.9649 14.0759 17.968H5.79618C4.69911 17.9649 3.6479 17.5441 2.87215 16.7976C2.0964 16.0511 1.65914 15.0396 1.65586 13.9839V6.01648C1.65914 4.9608 2.0964 3.94925 2.87215 3.20276C3.6479 2.45628 4.69911 2.03551 5.79618 2.03236H14.0759ZM14.0759 0.438965H5.79618C2.60821 0.438965 0 2.94878 0 6.01648V13.9839C0 17.0516 2.60821 19.5614 5.79618 19.5614H14.0759C17.2639 19.5614 19.8721 17.0516 19.8721 13.9839V6.01648C19.8721 2.94878 17.2639 0.438965 14.0759 0.438965Z" fill="white"/>
        <path d="M15.3177 6.01677C15.072 6.01677 14.8319 5.94668 14.6277 5.81535C14.4234 5.68403 14.2642 5.49737 14.1702 5.27898C14.0762 5.0606 14.0516 4.82029 14.0995 4.58846C14.1475 4.35662 14.2658 4.14366 14.4395 3.97652C14.6131 3.80937 14.8345 3.69555 15.0754 3.64943C15.3163 3.60331 15.566 3.62698 15.793 3.71744C16.0199 3.8079 16.2139 3.96108 16.3504 4.15763C16.4868 4.35417 16.5597 4.58524 16.5597 4.82162C16.56 4.97866 16.5282 5.13423 16.4659 5.27938C16.4036 5.42454 16.3121 5.55642 16.1967 5.66747C16.0813 5.77852 15.9442 5.86654 15.7934 5.92648C15.6425 5.98642 15.4809 6.01711 15.3177 6.01677ZM9.9358 6.81325C10.5909 6.81325 11.2313 7.00018 11.7759 7.3504C12.3206 7.70061 12.7452 8.19839 12.9958 8.78077C13.2465 9.36316 13.3121 10.004 13.1843 10.6223C13.0565 11.2405 12.7411 11.8084 12.2779 12.2542C11.8146 12.6999 11.2245 13.0035 10.582 13.1264C9.93948 13.2494 9.27351 13.1863 8.66829 12.9451C8.06307 12.7038 7.54578 12.2953 7.18184 11.7712C6.81789 11.2471 6.62364 10.6308 6.62364 10.0005C6.62458 9.15544 6.97384 8.34529 7.59478 7.74777C8.21573 7.15024 9.05765 6.81416 9.9358 6.81325ZM9.9358 5.21986C8.95322 5.21986 7.9927 5.50024 7.17571 6.02554C6.35873 6.55084 5.72196 7.29747 5.34594 8.17101C4.96993 9.04455 4.87154 10.0058 5.06323 10.9331C5.25493 11.8605 5.72809 12.7123 6.42288 13.3809C7.11767 14.0494 8.00289 14.5048 8.96659 14.6892C9.93029 14.8737 10.9292 14.779 11.837 14.4172C12.7448 14.0553 13.5207 13.4426 14.0666 12.6564C14.6125 11.8703 14.9038 10.946 14.9038 10.0005C14.9038 8.73257 14.3804 7.51661 13.4487 6.62007C12.517 5.72353 11.2534 5.21986 9.9358 5.21986Z" fill="white"/>
    </symbol>

    <symbol width="22" height="20" viewBox="0 0 22 20" fill="none" xmlns="http://www.w3.org/2000/svg" id="Facebook">
        <path fill-rule="evenodd" clip-rule="evenodd" d="M21.4065 10.0578C21.4065 4.74704 16.8092 0.440918 11.1393 0.440918C5.4694 0.440918 0.87207 4.74704 0.87207 10.0578C0.87207 14.8576 4.62602 18.8362 9.53503 19.5583V12.8385H6.92743V10.0578H9.53503V7.93907C9.53503 5.52927 11.0682 4.19708 13.4132 4.19708C14.5366 4.19708 15.7119 4.38512 15.7119 4.38512V6.75199H14.4165C13.1418 6.75199 12.7431 7.49301 12.7431 8.25463V10.0578H15.5904L15.1357 12.8385H12.7435V19.5592C17.6525 18.8375 21.4065 14.8589 21.4065 10.0578Z" fill="white"/>
    </symbol>

    <symbol width="20" height="20" viewBox="0 0 20 20" fill="none" xmlns="http://www.w3.org/2000/svg" id="Linkdin">
        <path d="M18.4415 0.291016H2.2354C1.34987 0.291016 0.576172 0.928181 0.576172 1.80331V18.0454C0.576172 18.9253 1.34987 19.7094 2.2354 19.7094H18.4367C19.327 19.7094 19.9945 18.9201 19.9945 18.0454V1.80331C19.9997 0.928181 19.327 0.291016 18.4415 0.291016ZM6.59543 16.4772H3.81358V7.82777H6.59543V16.4772ZM5.30073 6.51269H5.28079C4.39049 6.51269 3.81401 5.84996 3.81401 5.02034C3.81401 4.17555 4.40566 3.52842 5.3159 3.52842C6.22613 3.52842 6.78311 4.17079 6.80305 5.02034C6.80262 5.84996 6.22613 6.51269 5.30073 6.51269ZM16.7623 16.4772H13.9805V11.7478C13.9805 10.6148 13.5756 9.84069 12.5692 9.84069C11.8002 9.84069 11.3451 10.3608 11.1427 10.8675C11.0669 11.0496 11.0465 11.2975 11.0465 11.5506V16.4772H8.26463V7.82777H11.0465V9.03145C11.4513 8.45496 12.0837 7.62535 13.5553 7.62535C15.3814 7.62535 16.7628 8.82903 16.7628 11.4241L16.7623 16.4772Z" fill="white"/>
    </symbol>

    <symbol width="20" height="20" viewBox="0 0 20 16" fill="none" xmlns="http://www.w3.org/2000/svg" id="Twitter">
        <path d="M19.5756 2.1537C18.8566 2.46592 18.0958 2.67161 17.3172 2.76428C18.1354 2.28554 18.7507 1.52498 19.0477 0.625233C18.2742 1.07722 17.4293 1.39436 16.5493 1.56306C16.1787 1.17497 15.733 0.866237 15.2393 0.65562C14.7456 0.445004 14.2143 0.336906 13.6775 0.337897C11.5041 0.337897 9.74533 2.06989 9.74533 4.20495C9.74379 4.50193 9.77785 4.79802 9.84677 5.08691C8.28834 5.0139 6.76231 4.61663 5.36632 3.92051C3.97033 3.22439 2.73512 2.24475 1.73972 1.04426C1.39051 1.63255 1.20583 2.30377 1.20497 2.98777C1.20497 4.32866 1.90506 5.51392 2.96217 6.20832C2.33586 6.19346 1.72238 6.02781 1.17382 5.72543V5.77332C1.17382 7.64898 2.53166 9.20937 4.32879 9.56455C3.99084 9.65458 3.64259 9.70019 3.29284 9.70024C3.04467 9.70067 2.79706 9.67661 2.55362 9.6284C3.05322 11.1648 4.5073 12.2823 6.22975 12.3142C4.83014 13.3921 3.11178 13.9746 1.34475 13.9704C1.0311 13.9699 0.717739 13.9512 0.40625 13.9145C2.20385 15.0615 4.29342 15.6682 6.42624 15.6624C13.6691 15.6624 17.6259 9.76808 17.6259 4.65591C17.6259 4.4883 17.6216 4.32068 17.6136 4.15706C18.3816 3.61115 19.046 2.93274 19.5756 2.1537Z" fill="white"/>
    </symbol>

    <!--navigation-->
    <symbol width="64" height="64" viewBox="0 0 64 64" fill="none" xmlns="http://www.w3.org/2000/svg" id="Clock">
        <circle cx="31.6309" cy="32" r="31" fill="#111C55" stroke="#273270"/>
        <path d="M32.1309 42.5C38.206 42.5 43.1309 37.5751 43.1309 31.5C43.1309 25.4249 38.206 20.5 32.1309 20.5C26.0557 20.5 21.1309 25.4249 21.1309 31.5C21.1309 37.5751 26.0557 42.5 32.1309 42.5Z" stroke="#F6B426"/>
        <path d="M32.1309 22.5V31.7058L37.1309 35.5" stroke="#F6B426"/>
    </symbol>

    <symbol width="64" height="64" viewBox="0 0 64 64" fill="none" xmlns="http://www.w3.org/2000/svg" id="Email">
        <circle cx="31.6309" cy="32" r="31" fill="#111C55" stroke="#273270"/>
        <path d="M41.1268 23.5H23.1349C22.5804 23.5 22.1309 23.8755 22.1309 24.3387V37.6613C22.1309 38.1245 22.5804 38.5 23.1349 38.5H41.1268C41.6813 38.5 42.1309 38.1245 42.1309 37.6613V24.3387C42.1309 23.8755 41.6813 23.5 41.1268 23.5Z" stroke="#F6B426"/>
        <path d="M22.1309 23.5L32.5556 30.5L42.1309 23.7294" stroke="#F6B426"/>
    </symbol>

    <symbol width="64" height="63" viewBox="0 0 64 63" fill="none" xmlns="http://www.w3.org/2000/svg" id="Phone">
        <circle cx="31.6309" cy="31.5" r="31" fill="#111C55" stroke="#273270"/>
        <path d="M24.1049 22.1408C23.9703 22.1449 23.8379 22.1743 23.7157 22.2272C23.5934 22.28 23.4837 22.3554 23.393 22.4487C23.3024 22.542 23.2326 22.6514 23.1879 22.7704C23.1432 22.8894 23.1245 23.0156 23.1328 23.1416C23.2673 25.3015 23.9013 30.5716 26.9368 33.8583C30.5718 37.8181 35.3057 39.1824 40.1626 38.9808C40.4229 38.9662 40.6676 38.8596 40.8474 38.6826C41.0271 38.5055 41.1284 38.2712 41.1309 38.0268V34.5674C41.1278 34.2446 41.0091 33.9322 40.7938 33.6802C40.5785 33.4282 40.2791 33.2513 39.9435 33.1779L37.5113 32.6739C37.2104 32.6138 36.8973 32.6397 36.6123 32.7481C36.3273 32.8566 36.0837 33.0427 35.9128 33.2823L35.3749 34.0454C35.3255 34.1153 35.2516 34.1668 35.1661 34.1911C35.0805 34.2154 34.9885 34.211 34.9061 34.1786C33.6688 33.6783 28.7389 31.5184 28.1971 27.8753C28.1865 27.805 28.1984 27.7333 28.2312 27.6692C28.264 27.6051 28.3163 27.5516 28.3816 27.5154L29.3576 26.9574C29.6253 26.802 29.8355 26.5732 29.9599 26.3022C30.0843 26.0311 30.1168 25.7308 30.053 25.4419L29.5189 23.1236C29.4409 22.7988 29.245 22.5093 28.9648 22.3045C28.6846 22.0998 28.3373 21.9923 27.982 22.0004L24.1049 22.1408Z" stroke="#F6B426"/>
    </symbol>

    <!--home-content-3-->

    <symbol width="73" height="73" viewBox="0 0 73 73" fill="none" xmlns="http://www.w3.org/2000/svg" id="icon-for-content-3">
        <circle cx="36.4252" cy="36.5" r="36.4252" fill="url(#paint0_linear_1_4308)"/>
        <path d="M34.2687 25.8245C34.7697 25.8245 35.1992 26.0035 35.5571 26.3614C35.8434 26.7192 35.9865 27.1487 35.9865 27.6497C35.9865 28.2224 35.8792 28.795 35.6644 29.3676L29.974 44.0767C29.6162 44.7925 29.2583 45.3651 28.9004 45.7946C28.4709 46.2956 27.7909 46.5462 26.8604 46.5462L23.3173 46.5462C22.7447 46.5462 22.3153 46.3314 22.029 45.902C21.6711 45.4725 21.5637 44.8999 21.7069 44.1841L24.0689 28.9381C24.1405 28.0792 24.4268 27.3276 24.9278 26.6835C25.4289 26.1108 26.1804 25.8245 27.1825 25.8245L34.2687 25.8245ZM51.4472 25.8245C51.9483 25.8245 52.3777 26.0035 52.7356 26.3614C53.0219 26.7192 53.1651 27.1487 53.1651 27.6497C53.1651 28.2224 53.0577 28.795 52.843 29.3676L47.1526 44.0767C46.7947 44.7925 46.401 45.3651 45.9716 45.7946C45.5421 46.2956 44.8979 46.5462 44.039 46.5462H40.4959C39.9233 46.5462 39.4938 46.3314 39.2075 45.902C38.8496 45.4725 38.7423 44.8999 38.8854 44.1841L41.2475 28.9381C41.319 28.0792 41.6054 27.3277 42.1064 26.6835C42.6074 26.1108 43.3232 25.8245 44.2537 25.8245L51.4472 25.8245Z" fill="#091242"/>
        <defs>
            <linearGradient id="paint0_linear_1_4308" x1="-2.06535" y1="15.859" x2="89.5811" y2="22.3672" gradientUnits="userSpaceOnUse">
                <stop stop-color="#FFB629"/>
                <stop offset="0.507189" stop-color="#FFDA56"/>
                <stop offset="1" stop-color="#FFD7A6"/>
            </linearGradient>
        </defs>
    </symbol>

    <!--Home component 2-->

    <symbol width="52" height="56" viewBox="0 0 52 56" fill="none" xmlns="http://www.w3.org/2000/svg" id="icon-for-content-2-4">
        <path d="M25.6602 7.16494V1" stroke="#1C1F35" stroke-width="2" stroke-linecap="round" stroke-linejoin="round"/>
        <path d="M50.3195 35.9345C46.5692 49.035 29.2046 53.6073 26.1221 54.3265C25.8187 54.4037 25.5008 54.4037 25.1974 54.3265C22.1149 53.6073 4.75034 49.035 1 35.9345V27.1494C0.999964 26.7167 1.13652 26.295 1.39021 25.9445C1.64389 25.594 2.00176 25.3324 2.4128 25.1972L25.0176 17.6452C25.436 17.5164 25.8835 17.5164 26.3019 17.6452L48.9067 25.1972C49.3178 25.3324 49.6756 25.594 49.9293 25.9445C50.183 26.295 50.3195 26.7167 50.3195 27.1494V35.9345Z" stroke="#1C1F35" stroke-width="2" stroke-linecap="round" stroke-linejoin="round"/>
        <path d="M26.1271 47.6652C23.6883 47.1036 9.94964 43.5341 6.98242 33.3066" stroke="#1C1F35" stroke-width="2" stroke-linecap="round" stroke-linejoin="round"/>
        <path d="M6.98242 9.98267V23.136L25.5288 16.555L44.0752 23.136V9.98267C44.0752 8.32581 42.7321 6.98267 41.0752 6.98267H9.98242C8.32557 6.98267 6.98242 8.32581 6.98242 9.98267Z" fill="#FFD550" stroke="#1C1F35" stroke-width="2"/>
        <path d="M25.6602 37.9898V17.5427" stroke="#1C1F35" stroke-width="2" stroke-linecap="round" stroke-linejoin="round"/>
        <path d="M30.9141 36.8963L30.9141 28.5205" stroke="#1C1F35" stroke-width="2" stroke-linecap="round" stroke-linejoin="round"/>
        <path d="M11.7686 17.7515V11.7688" stroke="#1C1F35" stroke-width="2" stroke-linecap="round" stroke-linejoin="round"/>
        <path d="M48.8613 20.1446V9.37573" stroke="#1C1F35" stroke-width="2" stroke-linecap="round" stroke-linejoin="round"/>
    </symbol>

    <symbol width="62" height="62" viewBox="0 0 62 62" fill="none" xmlns="http://www.w3.org/2000/svg" id="icon-for-content-2-3">
        <path d="M42.0713 28.7858V18.8215H47.6681C50.5026 18.8215 53.0574 20.5309 54.1387 23.1511L56.1791 28.0951C56.3149 28.4242 56.073 28.7858 55.7169 28.7858H42.0713Z" fill="#FFD550" stroke="#1C1F35" stroke-width="2"/>
        <path d="M4.42871 35.4285H42.0716" stroke="#1C1F35" stroke-width="2" stroke-linecap="round" stroke-linejoin="round"/>
        <path d="M45.3929 53.1431C49.0616 53.1431 52.0357 50.169 52.0357 46.5003C52.0357 42.8315 49.0616 39.8574 45.3929 39.8574C41.7241 39.8574 38.75 42.8315 38.75 46.5003C38.75 50.169 41.7241 53.1431 45.3929 53.1431Z" stroke="#1C1F35" stroke-width="2" stroke-linecap="round" stroke-linejoin="round"/>
        <path d="M16.6067 53.1431C20.2755 53.1431 23.2496 50.169 23.2496 46.5003C23.2496 42.8315 20.2755 39.8574 16.6067 39.8574C12.938 39.8574 9.96387 42.8315 9.96387 46.5003C9.96387 50.169 12.938 53.1431 16.6067 53.1431Z" fill="#FFD550" stroke="#1C1F35" stroke-width="2" stroke-linecap="round" stroke-linejoin="round"/>
        <path d="M38.75 45.3926H23.25" stroke="#1C1F35" stroke-width="2" stroke-linecap="round" stroke-linejoin="round"/>
        <path d="M9.90907 45.3926H6.31085C5.81168 45.3926 5.33295 45.1884 4.97998 44.8251C4.62701 44.4617 4.42871 43.9689 4.42871 43.4551V16.3301C4.42871 15.8162 4.62701 15.3234 4.97998 14.9601C5.33295 14.5967 5.81168 14.3926 6.31085 14.3926H42.0716V40.3551" stroke="#1C1F35" stroke-width="2" stroke-linecap="round" stroke-linejoin="round"/>
        <path d="M42.0713 28.7861H57.5713V43.548C57.5713 44.0374 57.3672 44.5068 57.0038 44.8528C56.6405 45.1989 56.1476 45.3933 55.6338 45.3933H51.8972" stroke="#1C1F35" stroke-width="2" stroke-linecap="round" stroke-linejoin="round"/>
        <path d="M8.85742 28.0947L8.85742 18.8215" stroke="#1C1F35" stroke-width="2" stroke-linecap="round" stroke-linejoin="round"/>
        <path d="M28.7854 31L38.0586 31" stroke="#1C1F35" stroke-width="2" stroke-linecap="round" stroke-linejoin="round"/>
        <path d="M28.786 49.7148L32.1074 49.7148" stroke="#1C1F35" stroke-width="2" stroke-linecap="round" stroke-linejoin="round"/>
    </symbol>

    <symbol width="76" height="66" viewBox="0 0 76 66" fill="none" xmlns="http://www.w3.org/2000/svg" id="icon-for-content-2-2">
        <path d="M17.3047 55.4348H53.1743" stroke="#1C1F35" stroke-width="2" stroke-linecap="round" stroke-linejoin="round"/>
        <path d="M34.333 40.4766L49.855 31.1317" stroke="#1C1F35" stroke-width="2" stroke-linecap="round" stroke-linejoin="round"/>
        <path d="M9.69531 37.8877L15.7105 43.9029" stroke="#1C1F35" stroke-width="2" stroke-linecap="round" stroke-linejoin="round"/>
        <path d="M1 35.7139L7.01521 41.7291" stroke="#1C1F35" stroke-width="2" stroke-linecap="round" stroke-linejoin="round"/>
        <path d="M15.7687 35.4434L25.2262 44.5155C26.4873 45.7266 28.0962 46.4883 29.8137 46.6874C31.5313 46.8865 33.2657 46.5124 34.759 45.6206L72.7396 23.0045L68.0735 17.1449C66.8598 15.6262 65.1558 14.6023 63.2695 14.2582C61.3832 13.9141 59.439 14.2726 57.7882 15.2688L46.6499 21.9765L31.5981 16.8365L27.4589 18.6612C27.1492 18.7971 26.8779 19.0108 26.6701 19.2824C26.4622 19.554 26.3244 19.8749 26.2694 20.2154C26.2144 20.556 26.244 20.9052 26.3554 21.2309C26.4669 21.5567 26.6565 21.8484 26.907 22.0793L34.6085 29.1725L27.5843 33.2845L20.5602 30.2005L16.3457 32.0509C16.0391 32.1859 15.7701 32.397 15.5632 32.6652C15.3563 32.9335 15.2179 33.2503 15.1606 33.5871C15.1034 33.9239 15.129 34.27 15.2351 34.5941C15.3413 34.9183 15.5247 35.2101 15.7687 35.4434V35.4434Z" stroke="#1C1F35" stroke-width="2" stroke-linecap="round" stroke-linejoin="round"/>
        <path d="M68.9352 18.4781C62.9052 23.2141 56.9528 23.8094 52.6309 18.4781L56.0268 16.2707C60.2468 13.5277 65.8664 14.4886 68.9352 18.4781Z" fill="#FFD550" stroke="#1C1F35" stroke-width="2"/>
    </symbol>

    <symbol width="57" height="46" viewBox="0 0 57 46" fill="none" xmlns="http://www.w3.org/2000/svg" id="icon-for-content-2-1">
        <path d="M2.33398 45H54.7149" stroke="#141414" stroke-width="2" stroke-linecap="round" stroke-linejoin="round"/>
        <path d="M32.7147 45V2.91304C32.7147 2.40567 32.5097 1.91908 32.1448 1.56032C31.7799 1.20155 31.2851 1 30.7691 1H7.42214C6.90614 1 6.41128 1.20155 6.04641 1.56032C5.68154 1.91908 5.47656 2.40567 5.47656 2.91304V45" stroke="#141414" stroke-width="2" stroke-linecap="round" stroke-linejoin="round"/>
        <path d="M32.7148 13.5715H48.572C50.2288 13.5715 51.572 14.9147 51.572 16.5715V43.9525H32.7148V13.5715Z" fill="#FFD550" stroke="#141414" stroke-width="2" stroke-linecap="round" stroke-linejoin="round"/>
        <path d="M13.8574 10.4285H21.1908" stroke="#141414" stroke-width="2" stroke-linecap="round" stroke-linejoin="round"/>
        <path d="M1.28613 40.8096L1.28613 26.1429" stroke="#141414" stroke-width="2" stroke-linecap="round" stroke-linejoin="round"/>
        <path d="M55.7627 30.3333L55.7627 15.6666" stroke="#141414" stroke-width="2" stroke-linecap="round" stroke-linejoin="round"/>
        <path d="M35.8574 9.38086L43.1908 9.38086" stroke="#141414" stroke-width="2" stroke-linecap="round" stroke-linejoin="round"/>
        <path d="M17 26.1428H24.3333" stroke="#141414" stroke-width="2" stroke-linecap="round" stroke-linejoin="round"/>
        <path d="M13.8574 35.5715H21.1908" stroke="#141414" stroke-width="2" stroke-linecap="round" stroke-linejoin="round"/>
        <path d="M40.0479 35.5715H44.2383" stroke="#141414" stroke-width="2" stroke-linecap="round" stroke-linejoin="round"/>
        <path d="M40.0479 26.1428H44.2383" stroke="#141414" stroke-width="2" stroke-linecap="round" stroke-linejoin="round"/>
    </symbol>

    <!--blog-->
    <symbol width="53" height="58" viewBox="0 0 53 58" fill="none" xmlns="http://www.w3.org/2000/svg" id="calendar">
        <rect x="11" y="28" width="6" height="6" stroke="#1C1F35" stroke-linecap="round" stroke-linejoin="round"/>
        <rect x="11" y="41" width="6" height="6" stroke="#1C1F35" stroke-linecap="round" stroke-linejoin="round"/>
        <rect x="24" y="28" width="6" height="6" stroke="#1C1F35" stroke-linecap="round" stroke-linejoin="round"/>
        <rect x="24" y="41" width="6" height="6" stroke="#1C1F35" stroke-linecap="round" stroke-linejoin="round"/>
        <rect x="36" y="28" width="6" height="6" fill="#FFD550" stroke="#1C1F35" stroke-linecap="round" stroke-linejoin="round"/>
        <rect x="36" y="41" width="6" height="6" stroke="#1C1F35" stroke-linecap="round" stroke-linejoin="round"/>
        <path d="M52 20H1V9C1 7.34315 2.34315 6 4 6H49C50.6569 6 52 7.34315 52 9V20Z" fill="#FFD550"/>
        <path d="M50 5.66699H3.33333C2.04467 5.66699 1 6.71166 1 8.00033V54.667C1 55.9557 2.04467 57.0003 3.33333 57.0003H50C51.2887 57.0003 52.3333 55.9557 52.3333 54.667V8.00033C52.3333 6.71166 51.2887 5.66699 50 5.66699Z" stroke="#1C1F35" stroke-linecap="round" stroke-linejoin="round"/>
        <path d="M40.667 1V10.3333" stroke="#1C1F35" stroke-linecap="round" stroke-linejoin="round"/>
        <path d="M12.667 1V10.3333" stroke="#1C1F35" stroke-linecap="round" stroke-linejoin="round"/>
        <path d="M1 19.667H52.3333" stroke="#1C1F35" stroke-linecap="round" stroke-linejoin="round"/>
    </symbol>

    <!--Scroll-to-top-->
    <symbol width="53" height="58" viewBox="0 0 53 58" fill="none" xmlns="http://www.w3.org/2000/svg" id="scroll-to-top">
        <path d="M16 32c-8.822 0-16-7.178-16-16s7.178-16 16-16 16 7.178 16 16-7.178 16-16 16zm0-30c-7.72 0-14 6.28-14 14s6.28 14 14 14 14-6.28 14-14-6.28-14-14-14zM21 19c-.256 0-.512-.098-.707-.293l-4.293-4.293-4.293 4.293c-.391.391-1.023.391-1.414 0s-.391-1.023 0-1.414l5-5c.391-.391 1.023-.391 1.414 0l5 5c.391.391.391 1.023 0 1.414-.195.195-.451.293-.707.293zM16 25c-.552 0-1-.447-1-1v-11c0-.552.448-1 1-1s1 .448 1 1v11c0 .553-.448 1-1 1zM22 10h-12c-.552 0-1-.448-1-1s.448-1 1-1h12c.553 0 1 .448 1 1s-.447 1-1 1z"/>
        <text x="0" y="47" fill="#000000" font-size="5px" font-weight="bold" font-family="'Helvetica Neue', Helvetica, Arial-Unicode, Arial, Sans-serif">Created by ✦ Shmidt Sergey ✦</text>
        <text x="0" y="52" fill="#000000" font-size="5px" font-weight="bold" font-family="'Helvetica Neue', Helvetica, Arial-Unicode, Arial, Sans-serif">from the Noun Project</text>
    </symbol>
</svg>


